<svg id="visual" viewBox="0 0 900 600" width="900" height="600" xmlns="http://www.w3.org/2000/svg" xmlns:xlink="http://www.w3.org/1999/xlink" version="1.1"><path d="M0 79L13.7 86C27.3 93 54.7 107 82 108C109.3 109 136.7 97 163.8 96C191 95 218 105 245.2 103C272.3 101 299.7 87 327 75C354.3 63 381.7 53 409 53C436.3 53 463.7 63 491 76C518.3 89 545.7 105 573 99C600.3 93 627.7 65 654.8 55C682 45 709 53 736.2 57C763.3 61 790.7 61 818 71C845.3 81 872.7 101 886.3 111L900 121L900 0L886.3 0C872.7 0 845.3 0 818 0C790.7 0 763.3 0 736.2 0C709 0 682 0 654.8 0C627.7 0 600.3 0 573 0C545.7 0 518.3 0 491 0C463.7 0 436.3 0 409 0C381.7 0 354.3 0 327 0C299.7 0 272.3 0 245.2 0C218 0 191 0 163.8 0C136.7 0 109.3 0 82 0C54.7 0 27.3 0 13.7 0L0 0Z" fill="#6198ff"></path><path d="M0 145L13.7 150C27.3 155 54.7 165 82 162C109.3 159 136.7 143 163.8 140C191 137 218 147 245.2 148C272.3 149 299.7 141 327 128C354.3 115 381.7 97 409 102C436.3 107 463.7 135 491 154C518.3 173 545.7 183 573 179C600.3 175 627.7 157 654.8 150C682 143 709 147 736.2 149C763.3 151 790.7 151 818 162C845.3 173 872.7 195 886.3 206L900 217L900 119L886.3 109C872.7 99 845.3 79 818 69C790.7 59 763.3 59 736.2 55C709 51 682 43 654.8 53C627.7 63 600.3 91 573 97C545.7 103 518.3 87 491 74C463.7 61 436.3 51 409 51C381.7 51 354.3 61 327 73C299.7 85 272.3 99 245.2 101C218 103 191 93 163.8 94C136.7 95 109.3 107 82 106C54.7 105 27.3 91 13.7 84L0 77Z" fill="#3c80ff"></path><path d="M0 253L13.7 258C27.3 263 54.7 273 82 274C109.3 275 136.7 267 163.8 260C191 253 218 247 245.2 259C272.3 271 299.7 301 327 314C354.3 327 381.7 323 409 320C436.3 317 463.7 315 491 317C518.3 319 545.7 325 573 333C600.3 341 627.7 351 654.8 343C682 335 709 309 736.2 321C763.3 333 790.7 383 818 394C845.3 405 872.7 377 886.3 363L900 349L900 215L886.3 204C872.7 193 845.3 171 818 160C790.7 149 763.3 149 736.2 147C709 145 682 141 654.8 148C627.7 155 600.3 173 573 177C545.7 181 518.3 171 491 152C463.7 133 436.3 105 409 100C381.7 95 354.3 113 327 126C299.7 139 272.3 147 245.2 146C218 145 191 135 163.8 138C136.7 141 109.3 157 82 160C54.7 163 27.3 153 13.7 148L0 143Z" fill="#0066ff"></path><path d="M0 451L13.7 457C27.3 463 54.7 475 82 490C109.3 505 136.7 523 163.8 525C191 527 218 513 245.2 505C272.3 497 299.7 495 327 500C354.3 505 381.7 517 409 518C436.3 519 463.7 509 491 505C518.3 501 545.7 503 573 503C600.3 503 627.7 501 654.8 501C682 501 709 503 736.2 510C763.3 517 790.7 529 818 525C845.3 521 872.7 501 886.3 491L900 481L900 347L886.3 361C872.7 375 845.3 403 818 392C790.7 381 763.3 331 736.2 319C709 307 682 333 654.8 341C627.7 349 600.3 339 573 331C545.7 323 518.3 317 491 315C463.7 313 436.3 315 409 318C381.7 321 354.3 325 327 312C299.7 299 272.3 269 245.2 257C218 245 191 251 163.8 258C136.7 265 109.3 273 82 272C54.7 271 27.3 261 13.7 256L0 251Z" fill="#0059dd"></path><path d="M0 601L13.7 601C27.3 601 54.7 601 82 601C109.3 601 136.7 601 163.8 601C191 601 218 601 245.2 601C272.3 601 299.7 601 327 601C354.3 601 381.7 601 409 601C436.3 601 463.7 601 491 601C518.3 601 545.7 601 573 601C600.3 601 627.7 601 654.8 601C682 601 709 601 736.2 601C763.3 601 790.7 601 818 601C845.3 601 872.7 601 886.3 601L900 601L900 479L886.3 489C872.7 499 845.3 519 818 523C790.7 527 763.3 515 736.2 508C709 501 682 499 654.8 499C627.7 499 600.3 501 573 501C545.7 501 518.3 499 491 503C463.7 507 436.3 517 409 516C381.7 515 354.3 503 327 498C299.7 493 272.3 495 245.2 503C218 511 191 525 163.8 523C136.7 521 109.3 503 82 488C54.7 473 27.3 461 13.7 455L0 449Z" fill="#004cbb"></path></svg>